<svg width="21" height="15" viewBox="0 0 21 15" fill="none" xmlns="http://www.w3.org/2000/svg">
<path d="M19.6958 6.34851H20.7828V8.52242H19.6958V6.34851ZM2.48568 7.43547L1.86294 8.32635L0.549219 7.40804L1.88842 6.52731L2.48568 7.43547ZM7.33665 1.1865L7.71605 0.167912L9.75323 0.926708L9.37384 1.9453L7.33665 1.1865ZM9.30952 12.7846L9.82993 13.7389L7.92138 14.7797L7.40097 13.8254L9.30952 12.7846ZM19.6958 8.52242H2.48568V6.34851H19.6958V8.52242ZM9.37384 1.9453C9.05804 2.79315 8.46689 3.61011 7.8343 4.32569C7.19066 5.05376 6.44547 5.74176 5.7501 6.32908C5.05227 6.91848 4.389 7.41957 3.90087 7.773C3.65629 7.95009 3.4544 8.09104 3.31251 8.18847C3.24154 8.2372 3.18549 8.2751 3.14653 8.30126C3.12705 8.31434 3.11183 8.32448 3.10114 8.33158C3.0958 8.33513 3.09159 8.33792 3.08854 8.33993C3.08702 8.34094 3.08579 8.34175 3.08485 8.34237C3.08439 8.34268 3.08399 8.34294 3.08367 8.34315C3.08351 8.34325 3.08333 8.34337 3.08325 8.34342C3.08309 8.34353 3.08294 8.34363 2.48568 7.43547C1.88842 6.52731 1.88832 6.52738 1.88822 6.52744C1.88822 6.52744 1.88815 6.52749 1.88813 6.5275C1.88811 6.52751 1.88816 6.52748 1.88829 6.5274C1.88853 6.52723 1.88907 6.52688 1.8899 6.52633C1.89155 6.52524 1.89435 6.52339 1.89827 6.52078C1.9061 6.51558 1.9184 6.50739 1.93489 6.49632C1.96787 6.47418 2.0176 6.44056 2.08195 6.39637C2.21072 6.30795 2.39769 6.17746 2.62594 6.01219C3.08346 5.68092 3.70172 5.21361 4.34737 4.66829C4.99548 4.12088 5.65573 3.50782 6.20557 2.88585C6.76645 2.25138 7.15681 1.66932 7.33665 1.1865L9.37384 1.9453ZM2.48568 7.43547C3.10842 6.54458 3.10855 6.54468 3.10871 6.54479C3.10878 6.54484 3.10895 6.54496 3.10909 6.54506C3.10939 6.54526 3.10975 6.54551 3.11017 6.54581C3.11101 6.5464 3.11212 6.54718 3.11349 6.54814C3.11622 6.55005 3.11998 6.5527 3.12475 6.55607C3.13429 6.5628 3.14786 6.5724 3.16523 6.58478C3.19997 6.60954 3.24998 6.64541 3.3135 6.69162C3.4405 6.78402 3.62179 6.91793 3.84342 7.08713C4.28602 7.42501 4.89289 7.90619 5.55121 8.48059C6.8394 9.60456 8.43307 11.1775 9.30952 12.7846L7.40097 13.8254C6.72043 12.5776 5.37932 11.2157 4.12198 10.1186C3.50753 9.58253 2.93895 9.13163 2.52428 8.81507C2.31728 8.65704 2.14949 8.53314 2.03456 8.44953C1.97712 8.40773 1.93295 8.37605 1.90376 8.35526C1.88917 8.34486 1.87832 8.33719 1.87145 8.33234C1.86801 8.32991 1.86557 8.32819 1.86414 8.32719C1.86343 8.32669 1.86297 8.32637 1.86277 8.32623C1.86267 8.32616 1.86263 8.32613 1.86266 8.32615C1.86268 8.32616 1.86275 8.32621 1.86275 8.32622C1.86284 8.32628 1.86294 8.32635 2.48568 7.43547Z" fill="#1E1E1E"/>
</svg>
