<svg width="15" height="20" viewBox="0 0 15 20" fill="none" xmlns="http://www.w3.org/2000/svg">
<path d="M8.128 0.399999C10.0133 0.399999 11.6 1.03467 12.888 2.304C14.176 3.57333 14.82 5.132 14.82 6.98C14.82 8.828 14.176 10.3867 12.888 11.656C11.6 12.9253 10.0133 13.56 8.128 13.56H4.684V20H0.82V0.399999H8.128ZM8.128 9.948C8.94933 9.948 9.63067 9.668 10.172 9.108C10.7133 8.52933 10.984 7.82 10.984 6.98C10.984 6.12133 10.7133 5.412 10.172 4.852C9.63067 4.292 8.94933 4.012 8.128 4.012H4.684V9.948H8.128Z" fill="black"/>
</svg>
