<svg width="21" height="20" viewBox="0 0 21 20" fill="none" xmlns="http://www.w3.org/2000/svg">
<path d="M20.227 10.2103C20.227 9.44113 19.6035 8.81762 18.8343 8.81762H11.871V1.85433C11.871 1.08518 11.2475 0.46167 10.4784 0.46167C9.70923 0.46167 9.08572 1.08518 9.08572 1.85433V8.81762H2.12242C1.35328 8.81762 0.729767 9.44113 0.729767 10.2103C0.729767 10.9794 1.35328 11.6029 2.12243 11.6029H9.08572V18.5662C9.08572 19.3354 9.70923 19.9589 10.4784 19.9589C11.2475 19.9589 11.871 19.3354 11.871 18.5662V11.6029H18.8343C19.6035 11.6029 20.227 10.9794 20.227 10.2103Z" fill="white"/>
</svg>
